<svg width="250" height="132" viewBox="0 0 250 132" fill="none" xmlns="http://www.w3.org/2000/svg">
<path d="M11.0054 96.416C11.0054 95.328 11.2561 94.352 11.7574 93.488C12.2694 92.624 12.9574 91.952 13.8214 91.472C14.6961 90.9813 15.6508 90.736 16.6854 90.736C17.8694 90.736 18.9201 91.0293 19.8374 91.616C20.7654 92.192 21.4374 93.0133 21.8534 94.08H19.6614C19.3734 93.4933 18.9734 93.056 18.4614 92.768C17.9494 92.48 17.3574 92.336 16.6854 92.336C15.9494 92.336 15.2934 92.5013 14.7174 92.832C14.1414 93.1627 13.6881 93.6373 13.3574 94.256C13.0374 94.8747 12.8774 95.5947 12.8774 96.416C12.8774 97.2373 13.0374 97.9573 13.3574 98.576C13.6881 99.1947 14.1414 99.6747 14.7174 100.016C15.2934 100.347 15.9494 100.512 16.6854 100.512C17.3574 100.512 17.9494 100.368 18.4614 100.08C18.9734 99.792 19.3734 99.3547 19.6614 98.768H21.8534C21.4374 99.8347 20.7654 100.656 19.8374 101.232C18.9201 101.808 17.8694 102.096 16.6854 102.096C15.6401 102.096 14.6854 101.856 13.8214 101.376C12.9574 100.885 12.2694 100.208 11.7574 99.344C11.2561 98.48 11.0054 97.504 11.0054 96.416ZM29.3804 102.112C28.3458 102.112 27.3911 101.872 26.5164 101.392C25.6524 100.901 24.9644 100.224 24.4524 99.36C23.9511 98.4853 23.7004 97.504 23.7004 96.416C23.7004 95.328 23.9511 94.352 24.4524 93.488C24.9644 92.624 25.6524 91.952 26.5164 91.472C27.3911 90.9813 28.3458 90.736 29.3804 90.736C30.4258 90.736 31.3804 90.9813 32.2444 91.472C33.1191 91.952 33.8071 92.624 34.3084 93.488C34.8098 94.352 35.0604 95.328 35.0604 96.416C35.0604 97.504 34.8098 98.4853 34.3084 99.36C33.8071 100.224 33.1191 100.901 32.2444 101.392C31.3804 101.872 30.4258 102.112 29.3804 102.112ZM29.3804 100.528C30.1164 100.528 30.7724 100.363 31.3484 100.032C31.9244 99.6907 32.3724 99.2107 32.6924 98.592C33.0231 97.9627 33.1884 97.2373 33.1884 96.416C33.1884 95.5947 33.0231 94.8747 32.6924 94.256C32.3724 93.6373 31.9244 93.1627 31.3484 92.832C30.7724 92.5013 30.1164 92.336 29.3804 92.336C28.6444 92.336 27.9884 92.5013 27.4124 92.832C26.8364 93.1627 26.3831 93.6373 26.0524 94.256C25.7324 94.8747 25.5724 95.5947 25.5724 96.416C25.5724 97.2373 25.7324 97.9627 26.0524 98.592C26.3831 99.2107 26.8364 99.6907 27.4124 100.032C27.9884 100.363 28.6444 100.528 29.3804 100.528ZM38.9993 100.528H42.7593V102H37.1753V90.88H38.9993V100.528ZM46.4287 100.528H50.1887V102H44.6047V90.88H46.4287V100.528ZM53.8581 92.352V95.616H57.6981V97.104H53.8581V100.512H58.1781V102H52.0341V90.864H58.1781V92.352H53.8581ZM68.7927 94.08C68.5047 93.5253 68.1047 93.1093 67.5927 92.832C67.0807 92.544 66.4887 92.4 65.8167 92.4C65.0807 92.4 64.4247 92.5653 63.8487 92.896C63.2727 93.2267 62.8194 93.696 62.4887 94.304C62.1687 94.912 62.0087 95.616 62.0087 96.416C62.0087 97.216 62.1687 97.9253 62.4887 98.544C62.8194 99.152 63.2727 99.6213 63.8487 99.952C64.4247 100.283 65.0807 100.448 65.8167 100.448C66.8087 100.448 67.614 100.171 68.2327 99.616C68.8514 99.0613 69.23 98.3093 69.3687 97.36H65.1927V95.904H71.3207V97.328C71.2034 98.192 70.894 98.9867 70.3927 99.712C69.902 100.437 69.2567 101.019 68.4567 101.456C67.6674 101.883 66.7874 102.096 65.8167 102.096C64.7714 102.096 63.8167 101.856 62.9527 101.376C62.0887 100.885 61.4007 100.208 60.8887 99.344C60.3874 98.48 60.1367 97.504 60.1367 96.416C60.1367 95.328 60.3874 94.352 60.8887 93.488C61.4007 92.624 62.0887 91.952 62.9527 91.472C63.8274 90.9813 64.782 90.736 65.8167 90.736C67.0007 90.736 68.0514 91.0293 68.9687 91.616C69.8967 92.192 70.5687 93.0133 70.9847 94.08H68.7927ZM75.2637 92.352V95.616H79.1037V97.104H75.2637V100.512H79.5837V102H73.4397V90.864H79.5837V92.352H75.2637ZM91.6986 102.112C90.6639 102.112 89.7092 101.872 88.8346 101.392C87.9706 100.901 87.2826 100.224 86.7706 99.36C86.2692 98.4853 86.0186 97.504 86.0186 96.416C86.0186 95.328 86.2692 94.352 86.7706 93.488C87.2826 92.624 87.9706 91.952 88.8346 91.472C89.7092 90.9813 90.6639 90.736 91.6986 90.736C92.7439 90.736 93.6986 90.9813 94.5626 91.472C95.4372 91.952 96.1252 92.624 96.6266 93.488C97.1279 94.352 97.3786 95.328 97.3786 96.416C97.3786 97.504 97.1279 98.4853 96.6266 99.36C96.1252 100.224 95.4372 100.901 94.5626 101.392C93.6986 101.872 92.7439 102.112 91.6986 102.112ZM91.6986 100.528C92.4346 100.528 93.0906 100.363 93.6666 100.032C94.2426 99.6907 94.6906 99.2107 95.0106 98.592C95.3412 97.9627 95.5066 97.2373 95.5066 96.416C95.5066 95.5947 95.3412 94.8747 95.0106 94.256C94.6906 93.6373 94.2426 93.1627 93.6666 92.832C93.0906 92.5013 92.4346 92.336 91.6986 92.336C90.9626 92.336 90.3066 92.5013 89.7306 92.832C89.1546 93.1627 88.7012 93.6373 88.3706 94.256C88.0506 94.8747 87.8906 95.5947 87.8906 96.416C87.8906 97.2373 88.0506 97.9627 88.3706 98.592C88.7012 99.2107 89.1546 99.6907 89.7306 100.032C90.3066 100.363 90.9626 100.528 91.6986 100.528ZM106.037 90.88V92.368H101.317V95.648H104.997V97.136H101.317V102H99.4934V90.88H106.037ZM114.348 92.352V95.616H118.188V97.104H114.348V100.512H118.668V102H112.524V90.864H118.668V92.352H114.348ZM130.371 102H128.547L123.059 93.696V102H121.235V90.864H123.059L128.547 99.152V90.864H130.371V102ZM141.134 94.08C140.846 93.5253 140.446 93.1093 139.934 92.832C139.422 92.544 138.83 92.4 138.158 92.4C137.422 92.4 136.766 92.5653 136.19 92.896C135.614 93.2267 135.161 93.696 134.83 94.304C134.51 94.912 134.35 95.616 134.35 96.416C134.35 97.216 134.51 97.9253 134.83 98.544C135.161 99.152 135.614 99.6213 136.19 99.952C136.766 100.283 137.422 100.448 138.158 100.448C139.15 100.448 139.955 100.171 140.574 99.616C141.193 99.0613 141.571 98.3093 141.71 97.36H137.534V95.904H143.662V97.328C143.545 98.192 143.235 98.9867 142.734 99.712C142.243 100.437 141.598 101.019 140.798 101.456C140.009 101.883 139.129 102.096 138.158 102.096C137.113 102.096 136.158 101.856 135.294 101.376C134.43 100.885 133.742 100.208 133.23 99.344C132.729 98.48 132.478 97.504 132.478 96.416C132.478 95.328 132.729 94.352 133.23 93.488C133.742 92.624 134.43 91.952 135.294 91.472C136.169 90.9813 137.123 90.736 138.158 90.736C139.342 90.736 140.393 91.0293 141.31 91.616C142.238 92.192 142.91 93.0133 143.326 94.08H141.134ZM147.605 90.88V102H145.781V90.88H147.605ZM159.456 102H157.632L152.144 93.696V102H150.32V90.864H152.144L157.632 99.152V90.864H159.456V102ZM163.995 92.352V95.616H167.835V97.104H163.995V100.512H168.315V102H162.171V90.864H168.315V92.352H163.995ZM172.706 92.352V95.616H176.546V97.104H172.706V100.512H177.026V102H170.882V90.864H177.026V92.352H172.706ZM185.368 102L182.808 97.552H181.416V102H179.592V90.88H183.432C184.286 90.88 185.006 91.0293 185.592 91.328C186.19 91.6267 186.632 92.0267 186.92 92.528C187.219 93.0293 187.368 93.5893 187.368 94.208C187.368 94.9333 187.155 95.5947 186.728 96.192C186.312 96.7787 185.667 97.1787 184.792 97.392L187.544 102H185.368ZM181.416 96.096H183.432C184.115 96.096 184.627 95.9253 184.968 95.584C185.32 95.2427 185.496 94.784 185.496 94.208C185.496 93.632 185.326 93.184 184.984 92.864C184.643 92.5333 184.126 92.368 183.432 92.368H181.416V96.096ZM191.846 90.88V102H190.022V90.88H191.846ZM203.696 102H201.872L196.384 93.696V102H194.56V90.864H196.384L201.872 99.152V90.864H203.696V102ZM214.46 94.08C214.172 93.5253 213.772 93.1093 213.26 92.832C212.748 92.544 212.156 92.4 211.484 92.4C210.748 92.4 210.092 92.5653 209.516 92.896C208.94 93.2267 208.486 93.696 208.156 94.304C207.836 94.912 207.676 95.616 207.676 96.416C207.676 97.216 207.836 97.9253 208.156 98.544C208.486 99.152 208.94 99.6213 209.516 99.952C210.092 100.283 210.748 100.448 211.484 100.448C212.476 100.448 213.281 100.171 213.9 99.616C214.518 99.0613 214.897 98.3093 215.036 97.36H210.86V95.904H216.988V97.328C216.87 98.192 216.561 98.9867 216.06 99.712C215.569 100.437 214.924 101.019 214.124 101.456C213.334 101.883 212.454 102.096 211.484 102.096C210.438 102.096 209.484 101.856 208.62 101.376C207.756 100.885 207.068 100.208 206.556 99.344C206.054 98.48 205.804 97.504 205.804 96.416C205.804 95.328 206.054 94.352 206.556 93.488C207.068 92.624 207.756 91.952 208.62 91.472C209.494 90.9813 210.449 90.736 211.484 90.736C212.668 90.736 213.718 91.0293 214.636 91.616C215.564 92.192 216.236 93.0133 216.652 94.08H214.46ZM62.6686 126L61.2926 124.624C60.7592 125.157 60.1779 125.557 59.5486 125.824C58.9192 126.08 58.2152 126.208 57.4366 126.208C56.6472 126.208 55.9486 126.069 55.3406 125.792C54.7326 125.515 54.2632 125.12 53.9326 124.608C53.6019 124.085 53.4366 123.483 53.4366 122.8C53.4366 122.032 53.6552 121.349 54.0926 120.752C54.5299 120.144 55.1806 119.664 56.0446 119.312C55.7352 118.939 55.5166 118.592 55.3886 118.272C55.2606 117.941 55.1966 117.579 55.1966 117.184C55.1966 116.693 55.3192 116.256 55.5646 115.872C55.8206 115.488 56.1832 115.184 56.6526 114.96C57.1219 114.736 57.6659 114.624 58.2846 114.624C58.9139 114.624 59.4472 114.747 59.8846 114.992C60.3326 115.227 60.6632 115.552 60.8766 115.968C61.1006 116.384 61.1912 116.848 61.1486 117.36H59.3246C59.3352 116.965 59.2392 116.661 59.0366 116.448C58.8339 116.224 58.5566 116.112 58.2046 116.112C57.8526 116.112 57.5646 116.219 57.3406 116.432C57.1272 116.635 57.0206 116.885 57.0206 117.184C57.0206 117.472 57.1006 117.76 57.2606 118.048C57.4312 118.325 57.7246 118.688 58.1406 119.136L61.0846 122.064L62.2206 120.192H64.1886L62.7486 122.656L62.3486 123.312L65.0526 126H62.6686ZM57.4366 124.656C58.4392 124.656 59.3246 124.245 60.0926 123.424L57.1486 120.464C55.8899 120.965 55.2606 121.723 55.2606 122.736C55.2606 123.28 55.4632 123.739 55.8686 124.112C56.2739 124.475 56.7966 124.656 57.4366 124.656ZM78.2287 114.88V116.368H75.2687V126H73.4447V116.368H70.4687V114.88H78.2287ZM82.2199 116.352V119.616H86.0599V121.104H82.2199V124.512H86.5399V126H80.3959V114.864H86.5399V116.352H82.2199ZM88.4986 120.416C88.4986 119.328 88.7492 118.352 89.2506 117.488C89.7626 116.624 90.4506 115.952 91.3146 115.472C92.1892 114.981 93.1439 114.736 94.1786 114.736C95.3626 114.736 96.4132 115.029 97.3306 115.616C98.2586 116.192 98.9306 117.013 99.3466 118.08H97.1546C96.8666 117.493 96.4666 117.056 95.9546 116.768C95.4426 116.48 94.8506 116.336 94.1786 116.336C93.4426 116.336 92.7866 116.501 92.2106 116.832C91.6346 117.163 91.1812 117.637 90.8506 118.256C90.5306 118.875 90.3706 119.595 90.3706 120.416C90.3706 121.237 90.5306 121.957 90.8506 122.576C91.1812 123.195 91.6346 123.675 92.2106 124.016C92.7866 124.347 93.4426 124.512 94.1786 124.512C94.8506 124.512 95.4426 124.368 95.9546 124.08C96.4666 123.792 96.8666 123.355 97.1546 122.768H99.3466C98.9306 123.835 98.2586 124.656 97.3306 125.232C96.4132 125.808 95.3626 126.096 94.1786 126.096C93.1332 126.096 92.1786 125.856 91.3146 125.376C90.4506 124.885 89.7626 124.208 89.2506 123.344C88.7492 122.48 88.4986 121.504 88.4986 120.416ZM110.682 114.88V126H108.858V121.136H103.626V126H101.802V114.88H103.626V119.648H108.858V114.88H110.682ZM122.539 126H120.715L115.227 117.696V126H113.403V114.864H115.227L120.715 123.152V114.864H122.539V126ZM130.326 126.112C129.291 126.112 128.337 125.872 127.462 125.392C126.598 124.901 125.91 124.224 125.398 123.36C124.897 122.485 124.646 121.504 124.646 120.416C124.646 119.328 124.897 118.352 125.398 117.488C125.91 116.624 126.598 115.952 127.462 115.472C128.337 114.981 129.291 114.736 130.326 114.736C131.371 114.736 132.326 114.981 133.19 115.472C134.065 115.952 134.753 116.624 135.254 117.488C135.755 118.352 136.006 119.328 136.006 120.416C136.006 121.504 135.755 122.485 135.254 123.36C134.753 124.224 134.065 124.901 133.19 125.392C132.326 125.872 131.371 126.112 130.326 126.112ZM130.326 124.528C131.062 124.528 131.718 124.363 132.294 124.032C132.87 123.691 133.318 123.211 133.638 122.592C133.969 121.963 134.134 121.237 134.134 120.416C134.134 119.595 133.969 118.875 133.638 118.256C133.318 117.637 132.87 117.163 132.294 116.832C131.718 116.501 131.062 116.336 130.326 116.336C129.59 116.336 128.934 116.501 128.358 116.832C127.782 117.163 127.329 117.637 126.998 118.256C126.678 118.875 126.518 119.595 126.518 120.416C126.518 121.237 126.678 121.963 126.998 122.592C127.329 123.211 127.782 123.691 128.358 124.032C128.934 124.363 129.59 124.528 130.326 124.528ZM139.945 124.528H143.705V126H138.121V114.88H139.945V124.528ZM150.622 126.112C149.588 126.112 148.633 125.872 147.758 125.392C146.894 124.901 146.206 124.224 145.694 123.36C145.193 122.485 144.942 121.504 144.942 120.416C144.942 119.328 145.193 118.352 145.694 117.488C146.206 116.624 146.894 115.952 147.758 115.472C148.633 114.981 149.588 114.736 150.622 114.736C151.668 114.736 152.622 114.981 153.486 115.472C154.361 115.952 155.049 116.624 155.55 117.488C156.052 118.352 156.302 119.328 156.302 120.416C156.302 121.504 156.052 122.485 155.55 123.36C155.049 124.224 154.361 124.901 153.486 125.392C152.622 125.872 151.668 126.112 150.622 126.112ZM150.622 124.528C151.358 124.528 152.014 124.363 152.59 124.032C153.166 123.691 153.614 123.211 153.934 122.592C154.265 121.963 154.43 121.237 154.43 120.416C154.43 119.595 154.265 118.875 153.934 118.256C153.614 117.637 153.166 117.163 152.59 116.832C152.014 116.501 151.358 116.336 150.622 116.336C149.886 116.336 149.23 116.501 148.654 116.832C148.078 117.163 147.625 117.637 147.294 118.256C146.974 118.875 146.814 119.595 146.814 120.416C146.814 121.237 146.974 121.963 147.294 122.592C147.625 123.211 148.078 123.691 148.654 124.032C149.23 124.363 149.886 124.528 150.622 124.528ZM166.465 118.08C166.177 117.525 165.777 117.109 165.265 116.832C164.753 116.544 164.161 116.4 163.489 116.4C162.753 116.4 162.097 116.565 161.521 116.896C160.945 117.227 160.492 117.696 160.161 118.304C159.841 118.912 159.681 119.616 159.681 120.416C159.681 121.216 159.841 121.925 160.161 122.544C160.492 123.152 160.945 123.621 161.521 123.952C162.097 124.283 162.753 124.448 163.489 124.448C164.481 124.448 165.287 124.171 165.905 123.616C166.524 123.061 166.903 122.309 167.041 121.36H162.865V119.904H168.993V121.328C168.876 122.192 168.567 122.987 168.065 123.712C167.575 124.437 166.929 125.019 166.129 125.456C165.34 125.883 164.46 126.096 163.489 126.096C162.444 126.096 161.489 125.856 160.625 125.376C159.761 124.885 159.073 124.208 158.561 123.344C158.06 122.48 157.809 121.504 157.809 120.416C157.809 119.328 158.06 118.352 158.561 117.488C159.073 116.624 159.761 115.952 160.625 115.472C161.5 114.981 162.455 114.736 163.489 114.736C164.673 114.736 165.724 115.029 166.641 115.616C167.569 116.192 168.241 117.013 168.657 118.08H166.465ZM179.352 114.88L175.672 121.968V126H173.848V121.968L170.152 114.88H172.184L174.76 120.336L177.336 114.88H179.352Z" fill="white"/>
<path d="M42.42 51.66C45.3133 52.3133 47.6 53.76 49.28 56C51.0067 58.1933 51.87 60.7133 51.87 63.56C51.87 67.76 50.4233 71.05 47.53 73.43C44.6367 75.81 40.5767 77 35.35 77H10.92V27.65H34.58C39.62 27.65 43.5633 28.77 46.41 31.01C49.3033 33.25 50.75 36.4 50.75 40.46C50.75 43.3533 49.98 45.78 48.44 47.74C46.9467 49.6533 44.94 50.96 42.42 51.66ZM24.64 47.25H31.57C35.0233 47.25 36.75 45.8267 36.75 42.98C36.75 40.04 35.0233 38.57 31.57 38.57H24.64V47.25ZM32.62 65.94C36.0733 65.94 37.8 64.4933 37.8 61.6C37.8 60.1067 37.3333 58.9633 36.4 58.17C35.5133 57.3767 34.23 56.98 32.55 56.98H24.64V65.94H32.62ZM84.2729 77L74.4729 58.8H73.0029V77H59.2829V27.65H80.9129C84.8796 27.65 88.2396 28.35 90.9929 29.75C93.7462 31.1033 95.8229 32.9933 97.2229 35.42C98.6229 37.8 99.3229 40.4833 99.3229 43.47C99.3229 46.83 98.3896 49.7933 96.5229 52.36C94.7029 54.88 92.0196 56.6767 88.4729 57.75L99.6029 77H84.2729ZM73.0029 49.42H79.7929C81.6596 49.42 83.0596 48.9767 83.9929 48.09C84.9262 47.2033 85.3929 45.92 85.3929 44.24C85.3929 42.6533 84.9029 41.4167 83.9229 40.53C82.9896 39.5967 81.6129 39.13 79.7929 39.13H73.0029V49.42ZM105.282 52.22C105.282 47.3667 106.286 43.05 108.292 39.27C110.346 35.4433 113.239 32.48 116.972 30.38C120.706 28.2333 124.999 27.16 129.852 27.16C136.012 27.16 141.192 28.8167 145.392 32.13C149.592 35.3967 152.299 39.8533 153.512 45.5H138.742C137.856 43.6333 136.619 42.21 135.032 41.23C133.492 40.25 131.696 39.76 129.642 39.76C126.469 39.76 123.926 40.9033 122.012 43.19C120.146 45.43 119.212 48.44 119.212 52.22C119.212 56.0467 120.146 59.1033 122.012 61.39C123.926 63.63 126.469 64.75 129.642 64.75C131.696 64.75 133.492 64.26 135.032 63.28C136.619 62.3 137.856 60.8767 138.742 59.01H153.512C152.299 64.6567 149.592 69.1367 145.392 72.45C141.192 75.7167 136.012 77.35 129.852 77.35C124.999 77.35 120.706 76.3 116.972 74.2C113.239 72.0533 110.346 69.09 108.292 65.31C106.286 61.4833 105.282 57.12 105.282 52.22ZM219.019 27.65V77H205.299V49.77L195.989 77H184.509L175.129 49.56V77H161.409V27.65H177.999L190.389 59.71L202.499 27.65H219.019Z" fill="white"/>
<path d="M42.42 51.66L42.1524 50.6965L42.1997 52.6354L42.42 51.66ZM49.28 56L48.48 56.6L48.487 56.6094L48.4943 56.6186L49.28 56ZM47.53 73.43L48.1653 74.2023L48.1653 74.2023L47.53 73.43ZM10.92 77H9.92V78H10.92V77ZM10.92 27.65V26.65H9.92V27.65H10.92ZM46.41 31.01L45.7916 31.7959L45.7978 31.8007L46.41 31.01ZM48.44 47.74L47.6537 47.1222L47.6517 47.1247L48.44 47.74ZM24.64 47.25H23.64V48.25H24.64V47.25ZM24.64 38.57V37.57H23.64V38.57H24.64ZM36.4 58.17L35.7332 58.9152L35.7427 58.9237L35.7524 58.9319L36.4 58.17ZM24.64 56.98V55.98H23.64V56.98H24.64ZM24.64 65.94H23.64V66.94H24.64V65.94ZM42.1997 52.6354C44.8763 53.2398 46.9514 54.5619 48.48 56.6L50.08 55.4C48.2486 52.9581 45.7504 51.3868 42.6403 50.6846L42.1997 52.6354ZM48.4943 56.6186C50.0792 58.6318 50.87 60.9329 50.87 63.56H52.87C52.87 60.4938 51.9342 57.7548 50.0657 55.3814L48.4943 56.6186ZM50.87 63.56C50.87 67.5019 49.5273 70.4922 46.8947 72.6577L48.1653 74.2023C51.3193 71.6078 52.87 68.0181 52.87 63.56H50.87ZM46.8947 72.6577C44.2396 74.8418 40.4354 76 35.35 76V78C40.7179 78 45.0337 76.7782 48.1653 74.2023L46.8947 72.6577ZM35.35 76H10.92V78H35.35V76ZM11.92 77V27.65H9.92V77H11.92ZM10.92 28.65H34.58V26.65H10.92V28.65ZM34.58 28.65C39.4821 28.65 43.1788 29.7399 45.7916 31.7959L47.0284 30.2241C43.9478 27.8001 39.758 26.65 34.58 26.65V28.65ZM45.7978 31.8007C48.4174 33.8288 49.75 36.6706 49.75 40.46H51.75C51.75 36.1294 50.1893 32.6712 47.0222 30.2193L45.7978 31.8007ZM49.75 40.46C49.75 43.1669 49.0337 45.3658 47.6537 47.1222L49.2263 48.3578C50.9263 46.1942 51.75 43.5398 51.75 40.46H49.75ZM47.6517 47.1247C46.3006 48.8558 44.483 50.0491 42.1524 50.6965L42.6876 52.6235C45.397 51.8709 47.5928 50.4508 49.2283 48.3553L47.6517 47.1247ZM24.64 48.25H31.57V46.25H24.64V48.25ZM31.57 48.25C33.4089 48.25 34.974 47.875 36.0911 46.9541C37.2452 46.0028 37.75 44.6139 37.75 42.98H35.75C35.75 44.1928 35.3915 44.9389 34.8189 45.4109C34.2094 45.9133 33.1844 46.25 31.57 46.25V48.25ZM37.75 42.98C37.75 41.31 37.252 39.8891 36.1032 38.9111C34.9853 37.9593 33.415 37.57 31.57 37.57V39.57C33.1783 39.57 34.1981 39.9157 34.8068 40.4339C35.3846 40.9259 35.75 41.71 35.75 42.98H37.75ZM31.57 37.57H24.64V39.57H31.57V37.57ZM23.64 38.57V47.25H25.64V38.57H23.64ZM32.62 66.94C34.4619 66.94 36.0296 66.5579 37.1472 65.6215C38.2987 64.6568 38.8 63.2518 38.8 61.6H36.8C36.8 62.8415 36.438 63.6066 35.8628 64.0885C35.2537 64.5988 34.2314 64.94 32.62 64.94V66.94ZM38.8 61.6C38.8 59.8836 38.253 58.4326 37.0476 57.4081L35.7524 58.9319C36.4136 59.494 36.8 60.3297 36.8 61.6H38.8ZM37.0668 57.4248C35.9334 56.4107 34.3751 55.98 32.55 55.98V57.98C34.0849 57.98 35.0933 58.3427 35.7332 58.9152L37.0668 57.4248ZM32.55 55.98H24.64V57.98H32.55V55.98ZM23.64 56.98V65.94H25.64V56.98H23.64ZM24.64 66.94H32.62V64.94H24.64V66.94ZM84.2729 77L83.3924 77.4741L83.6756 78H84.2729V77ZM74.4729 58.8L75.3534 58.3259L75.0702 57.8H74.4729V58.8ZM73.0029 58.8V57.8H72.0029V58.8H73.0029ZM73.0029 77V78H74.0029V77H73.0029ZM59.2829 77H58.2829V78H59.2829V77ZM59.2829 27.65V26.65H58.2829V27.65H59.2829ZM90.9929 29.75L90.5396 30.6415L90.5518 30.6474L90.9929 29.75ZM97.2229 35.42L96.3567 35.9197L96.361 35.927L97.2229 35.42ZM96.5229 52.36L95.7142 51.7718L95.7122 51.7745L96.5229 52.36ZM88.4729 57.75L88.1832 56.7929L86.9757 57.1583L87.6072 58.2505L88.4729 57.75ZM99.6029 77V78H101.336L100.469 76.4995L99.6029 77ZM73.0029 49.42H72.0029V50.42H73.0029V49.42ZM83.9929 48.09L83.3041 47.365L83.3041 47.365L83.9929 48.09ZM83.9229 40.53L83.2158 41.2371L83.2335 41.2548L83.252 41.2715L83.9229 40.53ZM73.0029 39.13V38.13H72.0029V39.13H73.0029ZM85.1534 76.5259L75.3534 58.3259L73.5924 59.2741L83.3924 77.4741L85.1534 76.5259ZM74.4729 57.8H73.0029V59.8H74.4729V57.8ZM72.0029 58.8V77H74.0029V58.8H72.0029ZM73.0029 76H59.2829V78H73.0029V76ZM60.2829 77V27.65H58.2829V77H60.2829ZM59.2829 28.65H80.9129V26.65H59.2829V28.65ZM80.9129 28.65C84.7654 28.65 87.9609 29.3302 90.5396 30.6414L91.4461 28.8586C88.5182 27.3698 84.9937 26.65 80.9129 26.65V28.65ZM90.5518 30.6474C93.1448 31.922 95.0652 33.6811 96.3567 35.9197L98.0891 34.9203C96.5806 32.3055 94.3477 30.2847 91.434 28.8526L90.5518 30.6474ZM96.361 35.927C97.6632 38.1409 98.3229 40.6466 98.3229 43.47H100.323C100.323 40.3201 99.5826 37.4591 98.0848 34.913L96.361 35.927ZM98.3229 43.47C98.3229 46.6318 97.449 49.3864 95.7142 51.7718L97.3316 52.9482C99.3301 50.2002 100.323 47.0282 100.323 43.47H98.3229ZM95.7122 51.7745C94.0438 54.0846 91.5618 55.7704 88.1832 56.7929L88.7626 58.7071C92.4773 57.5829 95.362 55.6754 97.3336 52.9455L95.7122 51.7745ZM87.6072 58.2505L98.7372 77.5005L100.469 76.4995L89.3386 57.2495L87.6072 58.2505ZM99.6029 76H84.2729V78H99.6029V76ZM73.0029 50.42H79.7929V48.42H73.0029V50.42ZM79.7929 50.42C81.8013 50.42 83.4933 49.9439 84.6816 48.815L83.3041 47.365C82.6258 48.0094 81.5179 48.42 79.7929 48.42V50.42ZM84.6816 48.815C85.8694 47.6866 86.3929 46.1064 86.3929 44.24H84.3929C84.3929 45.7336 83.983 46.7201 83.3041 47.365L84.6816 48.815ZM86.3929 44.24C86.3929 42.4324 85.8251 40.9025 84.5938 39.7885L83.252 41.2715C83.9807 41.9309 84.3929 42.8743 84.3929 44.24H86.3929ZM84.63 39.8229C83.4473 38.6402 81.7756 38.13 79.7929 38.13V40.13C81.4502 40.13 82.5318 40.5531 83.2158 41.2371L84.63 39.8229ZM79.7929 38.13H73.0029V40.13H79.7929V38.13ZM72.0029 39.13V49.42H74.0029V39.13H72.0029ZM108.292 39.27L107.411 38.7972L107.409 38.8011L108.292 39.27ZM116.972 30.38L117.462 31.2516L117.471 31.2469L116.972 30.38ZM145.392 32.13L144.773 32.9151L144.778 32.9194L145.392 32.13ZM153.512 45.5V46.5H154.75L154.49 45.2899L153.512 45.5ZM138.742 45.5L137.839 45.9291L138.11 46.5H138.742V45.5ZM135.032 41.23L134.495 42.0737L134.507 42.0808L135.032 41.23ZM122.012 43.19L121.245 42.5483L121.244 42.5498L122.012 43.19ZM122.012 61.39L121.238 62.0224L121.245 62.031L121.252 62.0395L122.012 61.39ZM135.032 63.28L134.507 62.4291L134.495 62.4363L135.032 63.28ZM138.742 59.01V58.01H138.11L137.839 58.5809L138.742 59.01ZM153.512 59.01L154.49 59.2201L154.75 58.01H153.512V59.01ZM145.392 72.45L146.006 73.2394L146.012 73.2351L145.392 72.45ZM116.972 74.2L116.474 75.0669L116.482 75.0716L116.972 74.2ZM108.292 65.31L107.407 65.7744L107.41 65.7809L107.413 65.7873L108.292 65.31ZM106.282 52.22C106.282 47.508 107.255 43.3561 109.175 39.7389L107.409 38.8011C105.316 42.7439 104.282 47.2253 104.282 52.22H106.282ZM109.173 39.7428C111.138 36.081 113.897 33.2571 117.462 31.2516L116.482 29.5084C112.581 31.7029 109.553 34.8056 107.411 38.7972L109.173 39.7428ZM117.471 31.2469C121.034 29.1981 125.151 28.16 129.852 28.16V26.16C124.847 26.16 120.377 27.2686 116.474 29.5131L117.471 31.2469ZM129.852 28.16C135.823 28.16 140.775 29.7616 144.773 32.9151L146.012 31.3449C141.609 27.8718 136.201 26.16 129.852 26.16V28.16ZM144.778 32.9194C148.776 36.029 151.366 40.2721 152.535 45.7101L154.49 45.2899C153.232 39.4345 150.408 34.7644 146.006 31.3406L144.778 32.9194ZM153.512 44.5H138.742V46.5H153.512V44.5ZM139.645 45.0709C138.685 43.0497 137.326 41.4712 135.558 40.3792L134.507 42.0808C135.912 42.9488 137.026 44.2169 137.839 45.9291L139.645 45.0709ZM135.569 40.3863C133.849 39.2918 131.861 38.76 129.642 38.76V40.76C131.53 40.76 133.135 41.2081 134.495 42.0737L135.569 40.3863ZM129.642 38.76C126.195 38.76 123.362 40.0184 121.245 42.5483L122.779 43.8317C124.489 41.7883 126.743 40.76 129.642 40.76V38.76ZM121.244 42.5498C119.188 45.0171 118.212 48.2765 118.212 52.22H120.212C120.212 48.6035 121.103 45.8429 122.78 43.8302L121.244 42.5498ZM118.212 52.22C118.212 56.2079 119.187 59.5101 121.238 62.0224L122.787 60.7576C121.104 58.6966 120.212 55.8854 120.212 52.22H118.212ZM121.252 62.0395C123.371 64.5207 126.202 65.75 129.642 65.75V63.75C126.736 63.75 124.48 62.7393 122.773 60.7405L121.252 62.0395ZM129.642 65.75C131.861 65.75 133.849 65.2181 135.569 64.1237L134.495 62.4363C133.135 63.3018 131.53 63.75 129.642 63.75V65.75ZM135.558 64.1308C137.326 63.0388 138.685 61.4603 139.645 59.4391L137.839 58.5809C137.026 60.2931 135.912 61.5612 134.507 62.4292L135.558 64.1308ZM138.742 60.01H153.512V58.01H138.742V60.01ZM152.535 58.7999C151.366 64.2385 148.775 68.5076 144.773 71.6649L146.012 73.2351C150.409 69.7658 153.232 65.0748 154.49 59.2201L152.535 58.7999ZM144.778 71.6606C140.781 74.7699 135.826 76.35 129.852 76.35V78.35C136.198 78.35 141.604 76.6634 146.006 73.2394L144.778 71.6606ZM129.852 76.35C125.147 76.35 121.027 75.3335 117.462 73.3284L116.482 75.0716C120.384 77.2665 124.85 78.35 129.852 78.35V76.35ZM117.471 73.3331C113.897 71.2785 111.136 68.45 109.171 64.8327L107.413 65.7873C109.555 69.73 112.58 72.8282 116.474 75.0669L117.471 73.3331ZM109.178 64.8456C107.256 61.1804 106.282 56.9801 106.282 52.22H104.282C104.282 57.2599 105.315 61.7863 107.407 65.7744L109.178 64.8456ZM219.019 27.65H220.019V26.65H219.019V27.65ZM219.019 77V78H220.019V77H219.019ZM205.299 77H204.299V78H205.299V77ZM205.299 49.77H206.299L204.353 49.4465L205.299 49.77ZM195.989 77V78H196.704L196.935 77.3235L195.989 77ZM184.509 77L183.563 77.3235L183.794 78H184.509V77ZM175.129 49.56L176.075 49.2365L174.129 49.56H175.129ZM175.129 77V78H176.129V77H175.129ZM161.409 77H160.409V78H161.409V77ZM161.409 27.65V26.65H160.409V27.65H161.409ZM177.999 27.65L178.932 27.2895L178.685 26.65H177.999V27.65ZM190.389 59.71L189.456 60.0705L190.4 62.5117L191.325 60.0634L190.389 59.71ZM202.499 27.65V26.65H201.808L201.564 27.2966L202.499 27.65ZM218.019 27.65V77H220.019V27.65H218.019ZM219.019 76H205.299V78H219.019V76ZM206.299 77V49.77H204.299V77H206.299ZM204.353 49.4465L195.043 76.6765L196.935 77.3235L206.245 50.0935L204.353 49.4465ZM195.989 76H184.509V78H195.989V76ZM185.455 76.6765L176.075 49.2365L174.183 49.8835L183.563 77.3235L185.455 76.6765ZM174.129 49.56V77H176.129V49.56H174.129ZM175.129 76H161.409V78H175.129V76ZM162.409 77V27.65H160.409V77H162.409ZM161.409 28.65H177.999V26.65H161.409V28.65ZM177.066 28.0105L189.456 60.0705L191.322 59.3495L178.932 27.2895L177.066 28.0105ZM191.325 60.0634L203.435 28.0034L201.564 27.2966L189.454 59.3566L191.325 60.0634ZM202.499 28.65H219.019V26.65H202.499V28.65Z" fill="black"/>
</svg>
