<svg xmlns="http://www.w3.org/2000/svg" version="1.1" xmlns:xlink="http://www.w3.org/1999/xlink" xmlns:svgjs="http://svgjs.com/svgjs" width="1440" height="560" preserveAspectRatio="none" viewBox="0 0 1440 560"><g mask="url(&quot;#SvgjsMask1020&quot;)" fill="none"><rect width="1440" height="560" x="0" y="0" fill="rgba(248, 248, 248, 1)"></rect><path d="M-45.66 396.19L-45.66 396.19" stroke="rgba(0, 0, 0, 1)" stroke-width="1.5"></path><path d="M-45.66 396.19L-49.67 498.39" stroke="rgba(0, 0, 0, 1)" stroke-width="1.5"></path><path d="M-45.66 396.19L103.71 355.07" stroke="rgba(0, 0, 0, 1)" stroke-width="1.5"></path><path d="M-45.66 396.19L73.06 547.77" stroke="rgba(0, 0, 0, 1)" stroke-width="1.5"></path><path d="M-49.67 498.39L-49.67 498.39" stroke="rgba(0, 0, 0, 1)" stroke-width="1.5"></path><path d="M-49.67 498.39L73.06 547.77" stroke="rgba(0, 0, 0, 1)" stroke-width="1.5"></path><path d="M-49.67 498.39L-110.83 688.1" stroke="rgba(0, 0, 0, 1)" stroke-width="1.5"></path><path d="M-49.67 498.39L42.11 675.79" stroke="rgba(0, 0, 0, 1)" stroke-width="1.5"></path><path d="M-110.83 688.1L-110.83 688.1" stroke="rgba(0, 0, 0, 1)" stroke-width="1.5"></path><path d="M-110.83 688.1L42.11 675.79" stroke="rgba(0, 0, 0, 1)" stroke-width="1.5"></path><path d="M-110.83 688.1L73.06 547.77" stroke="rgba(0, 0, 0, 1)" stroke-width="1.5"></path><path d="M-110.83 688.1L-45.66 396.19" stroke="rgba(0, 0, 0, 1)" stroke-width="1.5"></path><path d="M-110.83 688.1L232.47 657.92" stroke="rgba(0, 0, 0, 1)" stroke-width="1.5"></path><path d="M-110.83 688.1L206.51 515.97" stroke="rgba(0, 0, 0, 1)" stroke-width="1.5"></path><path d="M103.71 355.07L103.71 355.07" stroke="rgba(0, 0, 0, 1)" stroke-width="1.5"></path><path d="M103.71 355.07L239.57 402.26" stroke="rgba(0, 0, 0, 1)" stroke-width="1.5"></path><path d="M103.71 355.07L206.51 515.97" stroke="rgba(0, 0, 0, 1)" stroke-width="1.5"></path><path d="M103.71 355.07L73.06 547.77" stroke="rgba(0, 0, 0, 1)" stroke-width="1.5"></path><path d="M73.06 547.77L73.06 547.77" stroke="rgba(0, 0, 0, 1)" stroke-width="1.5"></path><path d="M73.06 547.77L42.11 675.79" stroke="rgba(0, 0, 0, 1)" stroke-width="1.5"></path><path d="M73.06 547.77L206.51 515.97" stroke="rgba(0, 0, 0, 1)" stroke-width="1.5"></path><path d="M42.11 675.79L42.11 675.79" stroke="rgba(0, 0, 0, 1)" stroke-width="1.5"></path><path d="M42.11 675.79L232.47 657.92" stroke="rgba(0, 0, 0, 1)" stroke-width="1.5"></path><path d="M239.57 402.26L239.57 402.26" stroke="rgba(0, 0, 0, 1)" stroke-width="1.5"></path><path d="M239.57 402.26L345.23 381.56" stroke="rgba(0, 0, 0, 1)" stroke-width="1.5"></path><path d="M239.57 402.26L206.51 515.97" stroke="rgba(0, 0, 0, 1)" stroke-width="1.5"></path><path d="M239.57 402.26L401.63 491.54" stroke="rgba(0, 0, 0, 1)" stroke-width="1.5"></path><path d="M206.51 515.97L206.51 515.97" stroke="rgba(0, 0, 0, 1)" stroke-width="1.5"></path><path d="M206.51 515.97L232.47 657.92" stroke="rgba(0, 0, 0, 1)" stroke-width="1.5"></path><path d="M232.47 657.92L232.47 657.92" stroke="rgba(0, 0, 0, 1)" stroke-width="1.5"></path><path d="M345.23 381.56L345.23 381.56" stroke="rgba(0, 0, 0, 1)" stroke-width="1.5"></path><path d="M345.23 381.56L401.63 491.54" stroke="rgba(0, 0, 0, 1)" stroke-width="1.5"></path><path d="M345.23 381.56L206.51 515.97" stroke="rgba(0, 0, 0, 1)" stroke-width="1.5"></path><path d="M345.23 381.56L539.34 501.94" stroke="rgba(0, 0, 0, 1)" stroke-width="1.5"></path><path d="M345.23 381.56L103.71 355.07" stroke="rgba(0, 0, 0, 1)" stroke-width="1.5"></path><path d="M345.23 381.56L232.47 657.92" stroke="rgba(0, 0, 0, 1)" stroke-width="1.5"></path><path d="M401.63 491.54L401.63 491.54" stroke="rgba(0, 0, 0, 1)" stroke-width="1.5"></path><path d="M401.63 491.54L539.34 501.94" stroke="rgba(0, 0, 0, 1)" stroke-width="1.5"></path><path d="M396.85 696.09L396.85 696.09" stroke="rgba(0, 0, 0, 1)" stroke-width="1.5"></path><path d="M396.85 696.09L534.39 683.46" stroke="rgba(0, 0, 0, 1)" stroke-width="1.5"></path><path d="M396.85 696.09L232.47 657.92" stroke="rgba(0, 0, 0, 1)" stroke-width="1.5"></path><path d="M396.85 696.09L401.63 491.54" stroke="rgba(0, 0, 0, 1)" stroke-width="1.5"></path><path d="M396.85 696.09L539.34 501.94" stroke="rgba(0, 0, 0, 1)" stroke-width="1.5"></path><path d="M396.85 696.09L206.51 515.97" stroke="rgba(0, 0, 0, 1)" stroke-width="1.5"></path><path d="M539.34 501.94L539.34 501.94" stroke="rgba(0, 0, 0, 1)" stroke-width="1.5"></path><path d="M539.34 501.94L673.52 527.17" stroke="rgba(0, 0, 0, 1)" stroke-width="1.5"></path><path d="M534.39 683.46L534.39 683.46" stroke="rgba(0, 0, 0, 1)" stroke-width="1.5"></path><path d="M534.39 683.46L687.77 654.67" stroke="rgba(0, 0, 0, 1)" stroke-width="1.5"></path><path d="M534.39 683.46L539.34 501.94" stroke="rgba(0, 0, 0, 1)" stroke-width="1.5"></path><path d="M534.39 683.46L673.52 527.17" stroke="rgba(0, 0, 0, 1)" stroke-width="1.5"></path><path d="M534.39 683.46L401.63 491.54" stroke="rgba(0, 0, 0, 1)" stroke-width="1.5"></path><path d="M677.41 404.12L677.41 404.12" stroke="rgba(0, 0, 0, 1)" stroke-width="1.5"></path><path d="M677.41 404.12L673.52 527.17" stroke="rgba(0, 0, 0, 1)" stroke-width="1.5"></path><path d="M677.41 404.12L539.34 501.94" stroke="rgba(0, 0, 0, 1)" stroke-width="1.5"></path><path d="M673.52 527.17L673.52 527.17" stroke="rgba(0, 0, 0, 1)" stroke-width="1.5"></path><path d="M673.52 527.17L687.77 654.67" stroke="rgba(0, 0, 0, 1)" stroke-width="1.5"></path><path d="M673.52 527.17L802.47 521.69" stroke="rgba(0, 0, 0, 1)" stroke-width="1.5"></path><path d="M673.52 527.17L857.72 655.97" stroke="rgba(0, 0, 0, 1)" stroke-width="1.5"></path><path d="M687.77 654.67L687.77 654.67" stroke="rgba(0, 0, 0, 1)" stroke-width="1.5"></path><path d="M687.77 654.67L857.72 655.97" stroke="rgba(0, 0, 0, 1)" stroke-width="1.5"></path><path d="M687.77 654.67L802.47 521.69" stroke="rgba(0, 0, 0, 1)" stroke-width="1.5"></path><path d="M687.77 654.67L539.34 501.94" stroke="rgba(0, 0, 0, 1)" stroke-width="1.5"></path><path d="M687.77 654.67L677.41 404.12" stroke="rgba(0, 0, 0, 1)" stroke-width="1.5"></path><path d="M799.41 197.64L799.41 197.64" stroke="rgba(0, 0, 0, 1)" stroke-width="1.5"></path><path d="M799.41 197.64L949.56 98.77" stroke="rgba(0, 0, 0, 1)" stroke-width="1.5"></path><path d="M799.41 197.64L849.13 373.18" stroke="rgba(0, 0, 0, 1)" stroke-width="1.5"></path><path d="M799.41 197.64L998.29 226.36" stroke="rgba(0, 0, 0, 1)" stroke-width="1.5"></path><path d="M799.41 197.64L677.41 404.12" stroke="rgba(0, 0, 0, 1)" stroke-width="1.5"></path><path d="M799.41 197.64L983.58 370.99" stroke="rgba(0, 0, 0, 1)" stroke-width="1.5"></path><path d="M849.13 373.18L849.13 373.18" stroke="rgba(0, 0, 0, 1)" stroke-width="1.5"></path><path d="M849.13 373.18L983.58 370.99" stroke="rgba(0, 0, 0, 1)" stroke-width="1.5"></path><path d="M849.13 373.18L802.47 521.69" stroke="rgba(0, 0, 0, 1)" stroke-width="1.5"></path><path d="M849.13 373.18L677.41 404.12" stroke="rgba(0, 0, 0, 1)" stroke-width="1.5"></path><path d="M849.13 373.18L998.29 226.36" stroke="rgba(0, 0, 0, 1)" stroke-width="1.5"></path><path d="M802.47 521.69L802.47 521.69" stroke="rgba(0, 0, 0, 1)" stroke-width="1.5"></path><path d="M802.47 521.69L857.72 655.97" stroke="rgba(0, 0, 0, 1)" stroke-width="1.5"></path><path d="M802.47 521.69L677.41 404.12" stroke="rgba(0, 0, 0, 1)" stroke-width="1.5"></path><path d="M857.72 655.97L857.72 655.97" stroke="rgba(0, 0, 0, 1)" stroke-width="1.5"></path><path d="M857.72 655.97L968.36 692.43" stroke="rgba(0, 0, 0, 1)" stroke-width="1.5"></path><path d="M991.87 -56.78L991.87 -56.78" stroke="rgba(0, 0, 0, 1)" stroke-width="1.5"></path><path d="M991.87 -56.78L1109.11 -39.17" stroke="rgba(0, 0, 0, 1)" stroke-width="1.5"></path><path d="M991.87 -56.78L949.56 98.77" stroke="rgba(0, 0, 0, 1)" stroke-width="1.5"></path><path d="M991.87 -56.78L1153.15 71.24" stroke="rgba(0, 0, 0, 1)" stroke-width="1.5"></path><path d="M991.87 -56.78L998.29 226.36" stroke="rgba(0, 0, 0, 1)" stroke-width="1.5"></path><path d="M949.56 98.77L949.56 98.77" stroke="rgba(0, 0, 0, 1)" stroke-width="1.5"></path><path d="M949.56 98.77L998.29 226.36" stroke="rgba(0, 0, 0, 1)" stroke-width="1.5"></path><path d="M998.29 226.36L998.29 226.36" stroke="rgba(0, 0, 0, 1)" stroke-width="1.5"></path><path d="M998.29 226.36L983.58 370.99" stroke="rgba(0, 0, 0, 1)" stroke-width="1.5"></path><path d="M983.58 370.99L983.58 370.99" stroke="rgba(0, 0, 0, 1)" stroke-width="1.5"></path><path d="M983.58 370.99L1147.15 370.58" stroke="rgba(0, 0, 0, 1)" stroke-width="1.5"></path><path d="M983.58 370.99L992.15 546.67" stroke="rgba(0, 0, 0, 1)" stroke-width="1.5"></path><path d="M983.58 370.99L1092.54 511.54" stroke="rgba(0, 0, 0, 1)" stroke-width="1.5"></path><path d="M983.58 370.99L1147.31 208.21" stroke="rgba(0, 0, 0, 1)" stroke-width="1.5"></path><path d="M992.15 546.67L992.15 546.67" stroke="rgba(0, 0, 0, 1)" stroke-width="1.5"></path><path d="M992.15 546.67L1092.54 511.54" stroke="rgba(0, 0, 0, 1)" stroke-width="1.5"></path><path d="M992.15 546.67L968.36 692.43" stroke="rgba(0, 0, 0, 1)" stroke-width="1.5"></path><path d="M992.15 546.67L857.72 655.97" stroke="rgba(0, 0, 0, 1)" stroke-width="1.5"></path><path d="M968.36 692.43L968.36 692.43" stroke="rgba(0, 0, 0, 1)" stroke-width="1.5"></path><path d="M968.36 692.43L1124.58 707.62" stroke="rgba(0, 0, 0, 1)" stroke-width="1.5"></path><path d="M968.36 692.43L1092.54 511.54" stroke="rgba(0, 0, 0, 1)" stroke-width="1.5"></path><path d="M1109.11 -39.17L1109.11 -39.17" stroke="rgba(0, 0, 0, 1)" stroke-width="1.5"></path><path d="M1109.11 -39.17L1153.15 71.24" stroke="rgba(0, 0, 0, 1)" stroke-width="1.5"></path><path d="M1109.11 -39.17L1277.46 -39" stroke="rgba(0, 0, 0, 1)" stroke-width="1.5"></path><path d="M1153.15 71.24L1153.15 71.24" stroke="rgba(0, 0, 0, 1)" stroke-width="1.5"></path><path d="M1153.15 71.24L1270.3 100.61" stroke="rgba(0, 0, 0, 1)" stroke-width="1.5"></path><path d="M1153.15 71.24L1147.31 208.21" stroke="rgba(0, 0, 0, 1)" stroke-width="1.5"></path><path d="M1153.15 71.24L1238.09 199.5" stroke="rgba(0, 0, 0, 1)" stroke-width="1.5"></path><path d="M1153.15 71.24L1277.46 -39" stroke="rgba(0, 0, 0, 1)" stroke-width="1.5"></path><path d="M1153.15 71.24L949.56 98.77" stroke="rgba(0, 0, 0, 1)" stroke-width="1.5"></path><path d="M1147.31 208.21L1147.31 208.21" stroke="rgba(0, 0, 0, 1)" stroke-width="1.5"></path><path d="M1147.31 208.21L1238.09 199.5" stroke="rgba(0, 0, 0, 1)" stroke-width="1.5"></path><path d="M1147.31 208.21L998.29 226.36" stroke="rgba(0, 0, 0, 1)" stroke-width="1.5"></path><path d="M1147.31 208.21L1147.15 370.58" stroke="rgba(0, 0, 0, 1)" stroke-width="1.5"></path><path d="M1147.31 208.21L1270.3 100.61" stroke="rgba(0, 0, 0, 1)" stroke-width="1.5"></path><path d="M1147.15 370.58L1147.15 370.58" stroke="rgba(0, 0, 0, 1)" stroke-width="1.5"></path><path d="M1147.15 370.58L1276.92 368.16" stroke="rgba(0, 0, 0, 1)" stroke-width="1.5"></path><path d="M1147.15 370.58L1092.54 511.54" stroke="rgba(0, 0, 0, 1)" stroke-width="1.5"></path><path d="M1092.54 511.54L1092.54 511.54" stroke="rgba(0, 0, 0, 1)" stroke-width="1.5"></path><path d="M1124.58 707.62L1124.58 707.62" stroke="rgba(0, 0, 0, 1)" stroke-width="1.5"></path><path d="M1124.58 707.62L1092.54 511.54" stroke="rgba(0, 0, 0, 1)" stroke-width="1.5"></path><path d="M1277.46 -39L1277.46 -39" stroke="rgba(0, 0, 0, 1)" stroke-width="1.5"></path><path d="M1277.46 -39L1270.3 100.61" stroke="rgba(0, 0, 0, 1)" stroke-width="1.5"></path><path d="M1277.46 -39L1429.86 -81.75" stroke="rgba(0, 0, 0, 1)" stroke-width="1.5"></path><path d="M1270.3 100.61L1270.3 100.61" stroke="rgba(0, 0, 0, 1)" stroke-width="1.5"></path><path d="M1270.3 100.61L1238.09 199.5" stroke="rgba(0, 0, 0, 1)" stroke-width="1.5"></path><path d="M1238.09 199.5L1238.09 199.5" stroke="rgba(0, 0, 0, 1)" stroke-width="1.5"></path><path d="M1238.09 199.5L1406.95 231.34" stroke="rgba(0, 0, 0, 1)" stroke-width="1.5"></path><path d="M1238.09 199.5L1276.92 368.16" stroke="rgba(0, 0, 0, 1)" stroke-width="1.5"></path><path d="M1276.92 368.16L1276.92 368.16" stroke="rgba(0, 0, 0, 1)" stroke-width="1.5"></path><path d="M1276.92 368.16L1303.96 501.39" stroke="rgba(0, 0, 0, 1)" stroke-width="1.5"></path><path d="M1276.92 368.16L1447.13 352.95" stroke="rgba(0, 0, 0, 1)" stroke-width="1.5"></path><path d="M1303.96 501.39L1303.96 501.39" stroke="rgba(0, 0, 0, 1)" stroke-width="1.5"></path><path d="M1303.96 501.39L1431.43 537.32" stroke="rgba(0, 0, 0, 1)" stroke-width="1.5"></path><path d="M1429.86 -81.75L1429.86 -81.75" stroke="rgba(0, 0, 0, 1)" stroke-width="1.5"></path><path d="M1429.86 -81.75L1563.93 -38.23" stroke="rgba(0, 0, 0, 1)" stroke-width="1.5"></path><path d="M1429.86 -81.75L1429.29 91.86" stroke="rgba(0, 0, 0, 1)" stroke-width="1.5"></path><path d="M1429.86 -81.75L1547.83 71.99" stroke="rgba(0, 0, 0, 1)" stroke-width="1.5"></path><path d="M1429.86 -81.75L1270.3 100.61" stroke="rgba(0, 0, 0, 1)" stroke-width="1.5"></path><path d="M1429.29 91.86L1429.29 91.86" stroke="rgba(0, 0, 0, 1)" stroke-width="1.5"></path><path d="M1429.29 91.86L1547.83 71.99" stroke="rgba(0, 0, 0, 1)" stroke-width="1.5"></path><path d="M1429.29 91.86L1406.95 231.34" stroke="rgba(0, 0, 0, 1)" stroke-width="1.5"></path><path d="M1429.29 91.86L1270.3 100.61" stroke="rgba(0, 0, 0, 1)" stroke-width="1.5"></path><path d="M1429.29 91.86L1575.22 197.01" stroke="rgba(0, 0, 0, 1)" stroke-width="1.5"></path><path d="M1406.95 231.34L1406.95 231.34" stroke="rgba(0, 0, 0, 1)" stroke-width="1.5"></path><path d="M1406.95 231.34L1447.13 352.95" stroke="rgba(0, 0, 0, 1)" stroke-width="1.5"></path><path d="M1447.13 352.95L1447.13 352.95" stroke="rgba(0, 0, 0, 1)" stroke-width="1.5"></path><path d="M1447.13 352.95L1583.19 406.64" stroke="rgba(0, 0, 0, 1)" stroke-width="1.5"></path><path d="M1447.13 352.95L1431.43 537.32" stroke="rgba(0, 0, 0, 1)" stroke-width="1.5"></path><path d="M1447.13 352.95L1575.22 197.01" stroke="rgba(0, 0, 0, 1)" stroke-width="1.5"></path><path d="M1447.13 352.95L1303.96 501.39" stroke="rgba(0, 0, 0, 1)" stroke-width="1.5"></path><path d="M1431.43 537.32L1431.43 537.32" stroke="rgba(0, 0, 0, 1)" stroke-width="1.5"></path><path d="M1431.43 537.32L1565 556.11" stroke="rgba(0, 0, 0, 1)" stroke-width="1.5"></path><path d="M1431.43 537.32L1422.3 676.25" stroke="rgba(0, 0, 0, 1)" stroke-width="1.5"></path><path d="M1431.43 537.32L1537.64 698.35" stroke="rgba(0, 0, 0, 1)" stroke-width="1.5"></path><path d="M1431.43 537.32L1583.19 406.64" stroke="rgba(0, 0, 0, 1)" stroke-width="1.5"></path><path d="M1422.3 676.25L1422.3 676.25" stroke="rgba(0, 0, 0, 1)" stroke-width="1.5"></path><path d="M1422.3 676.25L1537.64 698.35" stroke="rgba(0, 0, 0, 1)" stroke-width="1.5"></path><path d="M1422.3 676.25L1565 556.11" stroke="rgba(0, 0, 0, 1)" stroke-width="1.5"></path><path d="M1563.93 -38.23L1563.93 -38.23" stroke="rgba(0, 0, 0, 1)" stroke-width="1.5"></path><path d="M1563.93 -38.23L1547.83 71.99" stroke="rgba(0, 0, 0, 1)" stroke-width="1.5"></path><path d="M1547.83 71.99L1547.83 71.99" stroke="rgba(0, 0, 0, 1)" stroke-width="1.5"></path><path d="M1547.83 71.99L1575.22 197.01" stroke="rgba(0, 0, 0, 1)" stroke-width="1.5"></path><path d="M1575.22 197.01L1575.22 197.01" stroke="rgba(0, 0, 0, 1)" stroke-width="1.5"></path><path d="M1575.22 197.01L1406.95 231.34" stroke="rgba(0, 0, 0, 1)" stroke-width="1.5"></path><path d="M1575.22 197.01L1583.19 406.64" stroke="rgba(0, 0, 0, 1)" stroke-width="1.5"></path><path d="M1575.22 197.01L1563.93 -38.23" stroke="rgba(0, 0, 0, 1)" stroke-width="1.5"></path><path d="M1583.19 406.64L1583.19 406.64" stroke="rgba(0, 0, 0, 1)" stroke-width="1.5"></path><path d="M1583.19 406.64L1565 556.11" stroke="rgba(0, 0, 0, 1)" stroke-width="1.5"></path><path d="M1583.19 406.64L1406.95 231.34" stroke="rgba(0, 0, 0, 1)" stroke-width="1.5"></path><path d="M1583.19 406.64L1303.96 501.39" stroke="rgba(0, 0, 0, 1)" stroke-width="1.5"></path><path d="M1565 556.11L1565 556.11" stroke="rgba(0, 0, 0, 1)" stroke-width="1.5"></path><path d="M1565 556.11L1537.64 698.35" stroke="rgba(0, 0, 0, 1)" stroke-width="1.5"></path><path d="M1565 556.11L1447.13 352.95" stroke="rgba(0, 0, 0, 1)" stroke-width="1.5"></path><path d="M1537.64 698.35L1537.64 698.35" stroke="rgba(0, 0, 0, 1)" stroke-width="1.5"></path><path d="M1537.64 698.35L1583.19 406.64" stroke="rgba(0, 0, 0, 1)" stroke-width="1.5"></path><circle r="5" cx="-45.66" cy="396.19" fill="rgba(0, 0, 0, 1)"></circle><circle r="5" cx="-49.67" cy="498.39" fill="rgba(0, 0, 0, 1)"></circle><circle r="5" cx="-110.83" cy="688.1" fill="rgba(0, 0, 0, 1)"></circle><circle r="5" cx="103.71" cy="355.07" fill="rgba(0, 0, 0, 1)"></circle><circle r="5" cx="73.06" cy="547.77" fill="rgba(0, 0, 0, 1)"></circle><circle r="5" cx="42.11" cy="675.79" fill="rgba(0, 0, 0, 1)"></circle><circle r="5" cx="239.57" cy="402.26" fill="rgba(0, 0, 0, 1)"></circle><circle r="5" cx="206.51" cy="515.97" fill="rgba(0, 0, 0, 1)"></circle><circle r="5" cx="232.47" cy="657.92" fill="rgba(0, 0, 0, 1)"></circle><circle r="5" cx="345.23" cy="381.56" fill="rgba(0, 0, 0, 1)"></circle><circle r="5" cx="401.63" cy="491.54" fill="rgba(0, 0, 0, 1)"></circle><circle r="5" cx="396.85" cy="696.09" fill="rgba(0, 0, 0, 1)"></circle><circle r="5" cx="539.34" cy="501.94" fill="rgba(0, 0, 0, 1)"></circle><circle r="5" cx="534.39" cy="683.46" fill="rgba(0, 0, 0, 1)"></circle><circle r="5" cx="677.41" cy="404.12" fill="rgba(0, 0, 0, 1)"></circle><circle r="5" cx="673.52" cy="527.17" fill="rgba(0, 0, 0, 1)"></circle><circle r="5" cx="687.77" cy="654.67" fill="rgba(0, 0, 0, 1)"></circle><circle r="5" cx="799.41" cy="197.64" fill="rgba(0, 0, 0, 1)"></circle><circle r="5" cx="849.13" cy="373.18" fill="rgba(0, 0, 0, 1)"></circle><circle r="5" cx="802.47" cy="521.69" fill="rgba(0, 0, 0, 1)"></circle><circle r="5" cx="857.72" cy="655.97" fill="rgba(0, 0, 0, 1)"></circle><circle r="5" cx="991.87" cy="-56.78" fill="rgba(0, 0, 0, 1)"></circle><circle r="5" cx="949.56" cy="98.77" fill="rgba(0, 0, 0, 1)"></circle><circle r="5" cx="998.29" cy="226.36" fill="rgba(0, 0, 0, 1)"></circle><circle r="5" cx="983.58" cy="370.99" fill="rgba(0, 0, 0, 1)"></circle><circle r="5" cx="992.15" cy="546.67" fill="rgba(0, 0, 0, 1)"></circle><circle r="5" cx="968.36" cy="692.43" fill="rgba(0, 0, 0, 1)"></circle><circle r="5" cx="1109.11" cy="-39.17" fill="rgba(0, 0, 0, 1)"></circle><circle r="5" cx="1153.15" cy="71.24" fill="rgba(0, 0, 0, 1)"></circle><circle r="5" cx="1147.31" cy="208.21" fill="rgba(0, 0, 0, 1)"></circle><circle r="5" cx="1147.15" cy="370.58" fill="rgba(0, 0, 0, 1)"></circle><circle r="5" cx="1092.54" cy="511.54" fill="rgba(0, 0, 0, 1)"></circle><circle r="5" cx="1124.58" cy="707.62" fill="rgba(0, 0, 0, 1)"></circle><circle r="5" cx="1277.46" cy="-39" fill="rgba(0, 0, 0, 1)"></circle><circle r="5" cx="1270.3" cy="100.61" fill="rgba(0, 0, 0, 1)"></circle><circle r="5" cx="1238.09" cy="199.5" fill="rgba(0, 0, 0, 1)"></circle><circle r="5" cx="1276.92" cy="368.16" fill="rgba(0, 0, 0, 1)"></circle><circle r="5" cx="1303.96" cy="501.39" fill="rgba(0, 0, 0, 1)"></circle><circle r="5" cx="1429.86" cy="-81.75" fill="rgba(0, 0, 0, 1)"></circle><circle r="5" cx="1429.29" cy="91.86" fill="rgba(0, 0, 0, 1)"></circle><circle r="5" cx="1406.95" cy="231.34" fill="rgba(0, 0, 0, 1)"></circle><circle r="5" cx="1447.13" cy="352.95" fill="rgba(0, 0, 0, 1)"></circle><circle r="5" cx="1431.43" cy="537.32" fill="rgba(0, 0, 0, 1)"></circle><circle r="5" cx="1422.3" cy="676.25" fill="rgba(0, 0, 0, 1)"></circle><circle r="5" cx="1563.93" cy="-38.23" fill="rgba(0, 0, 0, 1)"></circle><circle r="5" cx="1547.83" cy="71.99" fill="rgba(0, 0, 0, 1)"></circle><circle r="5" cx="1575.22" cy="197.01" fill="rgba(0, 0, 0, 1)"></circle><circle r="5" cx="1583.19" cy="406.64" fill="rgba(0, 0, 0, 1)"></circle><circle r="5" cx="1565" cy="556.11" fill="rgba(0, 0, 0, 1)"></circle><circle r="5" cx="1537.64" cy="698.35" fill="rgba(0, 0, 0, 1)"></circle><path d="M-92.34 662.82L-92.34 662.82" stroke="hsl(0, 0%, 31.1%)" stroke-width="1.5"></path><path d="M-92.34 662.82L-81.78 524.27" stroke="hsl(0, 0%, 31.1%)" stroke-width="1.5"></path><path d="M-92.34 662.82L48.38 553.43" stroke="hsl(0, 0%, 31.1%)" stroke-width="1.5"></path><path d="M-92.34 662.82L104.77 676.76" stroke="hsl(0, 0%, 31.1%)" stroke-width="1.5"></path><path d="M-92.34 662.82L203.37 699.56" stroke="hsl(0, 0%, 31.1%)" stroke-width="1.5"></path><path d="M-92.34 662.82L225.07 487.77" stroke="hsl(0, 0%, 31.1%)" stroke-width="1.5"></path><path d="M389.05 683.49L389.05 683.49" stroke="hsl(0, 0%, 31.1%)" stroke-width="1.5"></path><path d="M389.05 683.49L487.69 694.07" stroke="hsl(0, 0%, 31.1%)" stroke-width="1.5"></path><path d="M389.05 683.49L502.84 545.59" stroke="hsl(0, 0%, 31.1%)" stroke-width="1.5"></path><path d="M389.05 683.49L203.37 699.56" stroke="hsl(0, 0%, 31.1%)" stroke-width="1.5"></path><path d="M389.05 683.49L392.48 490.25" stroke="hsl(0, 0%, 31.1%)" stroke-width="1.5"></path><path d="M389.05 683.49L225.07 487.77" stroke="hsl(0, 0%, 31.1%)" stroke-width="1.5"></path><path d="M389.05 683.49L656.79 661.64" stroke="hsl(0, 0%, 31.1%)" stroke-width="1.5"></path><path d="M851.19 512.92L851.19 512.92" stroke="hsl(0, 0%, 31.1%)" stroke-width="1.5"></path><path d="M851.19 512.92L993.12 506.48" stroke="hsl(0, 0%, 31.1%)" stroke-width="1.5"></path><path d="M812.71 706.92L812.71 706.92" stroke="hsl(0, 0%, 31.1%)" stroke-width="1.5"></path><path d="M812.71 706.92L656.79 661.64" stroke="hsl(0, 0%, 31.1%)" stroke-width="1.5"></path><path d="M812.71 706.92L851.19 512.92" stroke="hsl(0, 0%, 31.1%)" stroke-width="1.5"></path><path d="M812.71 706.92L707.46 524.19" stroke="hsl(0, 0%, 31.1%)" stroke-width="1.5"></path><path d="M812.71 706.92L993.12 506.48" stroke="hsl(0, 0%, 31.1%)" stroke-width="1.5"></path><path d="M1264.93 218.69L1264.93 218.69" stroke="hsl(0, 0%, 31.1%)" stroke-width="1.5"></path><path d="M1264.93 218.69L1279.27 361.92" stroke="hsl(0, 0%, 31.1%)" stroke-width="1.5"></path><path d="M1264.93 218.69L1252.6 59.37" stroke="hsl(0, 0%, 31.1%)" stroke-width="1.5"></path><path d="M1264.93 218.69L1100.08 218.74" stroke="hsl(0, 0%, 31.1%)" stroke-width="1.5"></path><path d="M1264.93 218.69L1430.27 251.39" stroke="hsl(0, 0%, 31.1%)" stroke-width="1.5"></path><path d="M1309.99 487.61L1309.99 487.61" stroke="hsl(0, 0%, 31.1%)" stroke-width="1.5"></path><path d="M1309.99 487.61L1279.27 361.92" stroke="hsl(0, 0%, 31.1%)" stroke-width="1.5"></path><path d="M1309.99 487.61L1412.51 406.48" stroke="hsl(0, 0%, 31.1%)" stroke-width="1.5"></path><path d="M1309.99 487.61L1450.93 496" stroke="hsl(0, 0%, 31.1%)" stroke-width="1.5"></path><path d="M1309.99 487.61L1263.75 682.64" stroke="hsl(0, 0%, 31.1%)" stroke-width="1.5"></path><path d="M1309.99 487.61L1107.23 528.16" stroke="hsl(0, 0%, 31.1%)" stroke-width="1.5"></path><path d="M1309.99 487.61L1113.47 646.67" stroke="hsl(0, 0%, 31.1%)" stroke-width="1.5"></path><path d="M1584.11 -68.17L1584.11 -68.17" stroke="hsl(0, 0%, 31.1%)" stroke-width="1.5"></path><path d="M1584.11 -68.17L1577.32 54.59" stroke="hsl(0, 0%, 31.1%)" stroke-width="1.5"></path><path d="M1584.11 -68.17L1442.54 68.34" stroke="hsl(0, 0%, 31.1%)" stroke-width="1.5"></path><path d="M1584.11 -68.17L1283.93 -41.53" stroke="hsl(0, 0%, 31.1%)" stroke-width="1.5"></path><path d="M1584.11 -68.17L1430.27 251.39" stroke="hsl(0, 0%, 31.1%)" stroke-width="1.5"></path><path d="M-81.78 524.27L-81.78 524.27" stroke="hsl(0, 0%, 31.1%)" stroke-width="1.5"></path><path d="M-81.78 524.27L48.38 553.43" stroke="hsl(0, 0%, 31.1%)" stroke-width="1.5"></path><path d="M-81.78 524.27L104.77 676.76" stroke="hsl(0, 0%, 31.1%)" stroke-width="1.5"></path><path d="M48.38 553.43L48.38 553.43" stroke="hsl(0, 0%, 31.1%)" stroke-width="1.5"></path><path d="M48.38 553.43L104.77 676.76" stroke="hsl(0, 0%, 31.1%)" stroke-width="1.5"></path><path d="M48.38 553.43L225.07 487.77" stroke="hsl(0, 0%, 31.1%)" stroke-width="1.5"></path><path d="M104.77 676.76L104.77 676.76" stroke="hsl(0, 0%, 31.1%)" stroke-width="1.5"></path><path d="M104.77 676.76L203.37 699.56" stroke="hsl(0, 0%, 31.1%)" stroke-width="1.5"></path><path d="M225.07 487.77L225.07 487.77" stroke="hsl(0, 0%, 31.1%)" stroke-width="1.5"></path><path d="M225.07 487.77L392.48 490.25" stroke="hsl(0, 0%, 31.1%)" stroke-width="1.5"></path><path d="M225.07 487.77L203.37 699.56" stroke="hsl(0, 0%, 31.1%)" stroke-width="1.5"></path><path d="M225.07 487.77L104.77 676.76" stroke="hsl(0, 0%, 31.1%)" stroke-width="1.5"></path><path d="M203.37 699.56L203.37 699.56" stroke="hsl(0, 0%, 31.1%)" stroke-width="1.5"></path><path d="M203.37 699.56L48.38 553.43" stroke="hsl(0, 0%, 31.1%)" stroke-width="1.5"></path><path d="M392.48 490.25L392.48 490.25" stroke="hsl(0, 0%, 31.1%)" stroke-width="1.5"></path><path d="M392.48 490.25L502.84 545.59" stroke="hsl(0, 0%, 31.1%)" stroke-width="1.5"></path><path d="M392.48 490.25L487.69 694.07" stroke="hsl(0, 0%, 31.1%)" stroke-width="1.5"></path><path d="M392.48 490.25L203.37 699.56" stroke="hsl(0, 0%, 31.1%)" stroke-width="1.5"></path><path d="M392.48 490.25L669.64 377.99" stroke="hsl(0, 0%, 31.1%)" stroke-width="1.5"></path><path d="M502.84 545.59L502.84 545.59" stroke="hsl(0, 0%, 31.1%)" stroke-width="1.5"></path><path d="M502.84 545.59L487.69 694.07" stroke="hsl(0, 0%, 31.1%)" stroke-width="1.5"></path><path d="M502.84 545.59L656.79 661.64" stroke="hsl(0, 0%, 31.1%)" stroke-width="1.5"></path><path d="M487.69 694.07L487.69 694.07" stroke="hsl(0, 0%, 31.1%)" stroke-width="1.5"></path><path d="M487.69 694.07L656.79 661.64" stroke="hsl(0, 0%, 31.1%)" stroke-width="1.5"></path><path d="M487.69 694.07L707.46 524.19" stroke="hsl(0, 0%, 31.1%)" stroke-width="1.5"></path><path d="M487.69 694.07L203.37 699.56" stroke="hsl(0, 0%, 31.1%)" stroke-width="1.5"></path><path d="M669.64 377.99L669.64 377.99" stroke="hsl(0, 0%, 31.1%)" stroke-width="1.5"></path><path d="M669.64 377.99L802.67 346.71" stroke="hsl(0, 0%, 31.1%)" stroke-width="1.5"></path><path d="M669.64 377.99L707.46 524.19" stroke="hsl(0, 0%, 31.1%)" stroke-width="1.5"></path><path d="M669.64 377.99L851.19 512.92" stroke="hsl(0, 0%, 31.1%)" stroke-width="1.5"></path><path d="M669.64 377.99L502.84 545.59" stroke="hsl(0, 0%, 31.1%)" stroke-width="1.5"></path><path d="M669.64 377.99L656.79 661.64" stroke="hsl(0, 0%, 31.1%)" stroke-width="1.5"></path><path d="M707.46 524.19L707.46 524.19" stroke="hsl(0, 0%, 31.1%)" stroke-width="1.5"></path><path d="M707.46 524.19L851.19 512.92" stroke="hsl(0, 0%, 31.1%)" stroke-width="1.5"></path><path d="M707.46 524.19L656.79 661.64" stroke="hsl(0, 0%, 31.1%)" stroke-width="1.5"></path><path d="M707.46 524.19L802.67 346.71" stroke="hsl(0, 0%, 31.1%)" stroke-width="1.5"></path><path d="M656.79 661.64L656.79 661.64" stroke="hsl(0, 0%, 31.1%)" stroke-width="1.5"></path><path d="M802.67 346.71L802.67 346.71" stroke="hsl(0, 0%, 31.1%)" stroke-width="1.5"></path><path d="M802.67 346.71L851.19 512.92" stroke="hsl(0, 0%, 31.1%)" stroke-width="1.5"></path><path d="M802.67 346.71L992.08 366.59" stroke="hsl(0, 0%, 31.1%)" stroke-width="1.5"></path><path d="M802.67 346.71L993.12 506.48" stroke="hsl(0, 0%, 31.1%)" stroke-width="1.5"></path><path d="M992.08 366.59L992.08 366.59" stroke="hsl(0, 0%, 31.1%)" stroke-width="1.5"></path><path d="M992.08 366.59L993.12 506.48" stroke="hsl(0, 0%, 31.1%)" stroke-width="1.5"></path><path d="M993.12 506.48L993.12 506.48" stroke="hsl(0, 0%, 31.1%)" stroke-width="1.5"></path><path d="M993.12 506.48L1107.23 528.16" stroke="hsl(0, 0%, 31.1%)" stroke-width="1.5"></path><path d="M1138.58 70.27L1138.58 70.27" stroke="hsl(0, 0%, 31.1%)" stroke-width="1.5"></path><path d="M1138.58 70.27L1252.6 59.37" stroke="hsl(0, 0%, 31.1%)" stroke-width="1.5"></path><path d="M1138.58 70.27L1100.08 218.74" stroke="hsl(0, 0%, 31.1%)" stroke-width="1.5"></path><path d="M1138.58 70.27L1283.93 -41.53" stroke="hsl(0, 0%, 31.1%)" stroke-width="1.5"></path><path d="M1138.58 70.27L1264.93 218.69" stroke="hsl(0, 0%, 31.1%)" stroke-width="1.5"></path><path d="M1138.58 70.27L1442.54 68.34" stroke="hsl(0, 0%, 31.1%)" stroke-width="1.5"></path><path d="M1100.08 218.74L1100.08 218.74" stroke="hsl(0, 0%, 31.1%)" stroke-width="1.5"></path><path d="M1100.08 218.74L992.08 366.59" stroke="hsl(0, 0%, 31.1%)" stroke-width="1.5"></path><path d="M1100.08 218.74L1252.6 59.37" stroke="hsl(0, 0%, 31.1%)" stroke-width="1.5"></path><path d="M1100.08 218.74L1279.27 361.92" stroke="hsl(0, 0%, 31.1%)" stroke-width="1.5"></path><path d="M1100.08 218.74L993.12 506.48" stroke="hsl(0, 0%, 31.1%)" stroke-width="1.5"></path><path d="M1107.23 528.16L1107.23 528.16" stroke="hsl(0, 0%, 31.1%)" stroke-width="1.5"></path><path d="M1107.23 528.16L1113.47 646.67" stroke="hsl(0, 0%, 31.1%)" stroke-width="1.5"></path><path d="M1107.23 528.16L992.08 366.59" stroke="hsl(0, 0%, 31.1%)" stroke-width="1.5"></path><path d="M1107.23 528.16L1263.75 682.64" stroke="hsl(0, 0%, 31.1%)" stroke-width="1.5"></path><path d="M1113.47 646.67L1113.47 646.67" stroke="hsl(0, 0%, 31.1%)" stroke-width="1.5"></path><path d="M1113.47 646.67L1263.75 682.64" stroke="hsl(0, 0%, 31.1%)" stroke-width="1.5"></path><path d="M1113.47 646.67L993.12 506.48" stroke="hsl(0, 0%, 31.1%)" stroke-width="1.5"></path><path d="M1113.47 646.67L851.19 512.92" stroke="hsl(0, 0%, 31.1%)" stroke-width="1.5"></path><path d="M1283.93 -41.53L1283.93 -41.53" stroke="hsl(0, 0%, 31.1%)" stroke-width="1.5"></path><path d="M1283.93 -41.53L1252.6 59.37" stroke="hsl(0, 0%, 31.1%)" stroke-width="1.5"></path><path d="M1283.93 -41.53L1442.54 68.34" stroke="hsl(0, 0%, 31.1%)" stroke-width="1.5"></path><path d="M1252.6 59.37L1252.6 59.37" stroke="hsl(0, 0%, 31.1%)" stroke-width="1.5"></path><path d="M1279.27 361.92L1279.27 361.92" stroke="hsl(0, 0%, 31.1%)" stroke-width="1.5"></path><path d="M1279.27 361.92L1412.51 406.48" stroke="hsl(0, 0%, 31.1%)" stroke-width="1.5"></path><path d="M1263.75 682.64L1263.75 682.64" stroke="hsl(0, 0%, 31.1%)" stroke-width="1.5"></path><path d="M1442.54 68.34L1442.54 68.34" stroke="hsl(0, 0%, 31.1%)" stroke-width="1.5"></path><path d="M1442.54 68.34L1577.32 54.59" stroke="hsl(0, 0%, 31.1%)" stroke-width="1.5"></path><path d="M1442.54 68.34L1430.27 251.39" stroke="hsl(0, 0%, 31.1%)" stroke-width="1.5"></path><path d="M1442.54 68.34L1252.6 59.37" stroke="hsl(0, 0%, 31.1%)" stroke-width="1.5"></path><path d="M1430.27 251.39L1430.27 251.39" stroke="hsl(0, 0%, 31.1%)" stroke-width="1.5"></path><path d="M1430.27 251.39L1412.51 406.48" stroke="hsl(0, 0%, 31.1%)" stroke-width="1.5"></path><path d="M1430.27 251.39L1279.27 361.92" stroke="hsl(0, 0%, 31.1%)" stroke-width="1.5"></path><path d="M1430.27 251.39L1594.86 388.87" stroke="hsl(0, 0%, 31.1%)" stroke-width="1.5"></path><path d="M1412.51 406.48L1412.51 406.48" stroke="hsl(0, 0%, 31.1%)" stroke-width="1.5"></path><path d="M1412.51 406.48L1450.93 496" stroke="hsl(0, 0%, 31.1%)" stroke-width="1.5"></path><path d="M1412.51 406.48L1594.86 388.87" stroke="hsl(0, 0%, 31.1%)" stroke-width="1.5"></path><path d="M1412.51 406.48L1605.56 489.08" stroke="hsl(0, 0%, 31.1%)" stroke-width="1.5"></path><path d="M1450.93 496L1450.93 496" stroke="hsl(0, 0%, 31.1%)" stroke-width="1.5"></path><path d="M1450.93 496L1605.56 489.08" stroke="hsl(0, 0%, 31.1%)" stroke-width="1.5"></path><path d="M1577.32 54.59L1577.32 54.59" stroke="hsl(0, 0%, 31.1%)" stroke-width="1.5"></path><path d="M1577.32 54.59L1430.27 251.39" stroke="hsl(0, 0%, 31.1%)" stroke-width="1.5"></path><path d="M1577.32 54.59L1283.93 -41.53" stroke="hsl(0, 0%, 31.1%)" stroke-width="1.5"></path><path d="M1594.86 388.87L1594.86 388.87" stroke="hsl(0, 0%, 31.1%)" stroke-width="1.5"></path><path d="M1594.86 388.87L1605.56 489.08" stroke="hsl(0, 0%, 31.1%)" stroke-width="1.5"></path><path d="M1594.86 388.87L1450.93 496" stroke="hsl(0, 0%, 31.1%)" stroke-width="1.5"></path><path d="M1605.56 489.08L1605.56 489.08" stroke="hsl(0, 0%, 31.1%)" stroke-width="1.5"></path><path d="M1557.63 671.42L1557.63 671.42" stroke="hsl(0, 0%, 31.1%)" stroke-width="1.5"></path><path d="M1557.63 671.42L1605.56 489.08" stroke="hsl(0, 0%, 31.1%)" stroke-width="1.5"></path><path d="M1557.63 671.42L1450.93 496" stroke="hsl(0, 0%, 31.1%)" stroke-width="1.5"></path><path d="M1557.63 671.42L1594.86 388.87" stroke="hsl(0, 0%, 31.1%)" stroke-width="1.5"></path><path d="M1557.63 671.42L1263.75 682.64" stroke="hsl(0, 0%, 31.1%)" stroke-width="1.5"></path><path d="M1557.63 671.42L1412.51 406.48" stroke="hsl(0, 0%, 31.1%)" stroke-width="1.5"></path><path d="M1557.63 671.42L1309.99 487.61" stroke="hsl(0, 0%, 31.1%)" stroke-width="1.5"></path><circle r="25" cx="-92.34" cy="662.82" fill="url(#SvgjsRadialGradient1021)"></circle><circle r="25" cx="389.05" cy="683.49" fill="url(#SvgjsRadialGradient1021)"></circle><circle r="25" cx="851.19" cy="512.92" fill="url(#SvgjsRadialGradient1021)"></circle><circle r="25" cx="812.71" cy="706.92" fill="url(#SvgjsRadialGradient1021)"></circle><circle r="25" cx="1264.93" cy="218.69" fill="url(#SvgjsRadialGradient1021)"></circle><circle r="25" cx="1309.99" cy="487.61" fill="url(#SvgjsRadialGradient1021)"></circle><circle r="25" cx="1584.11" cy="-68.17" fill="url(#SvgjsRadialGradient1021)"></circle><circle r="5" cx="-81.78" cy="524.27" fill="#9e9e9e"></circle><circle r="5" cx="48.38" cy="553.43" fill="#9e9e9e"></circle><circle r="5" cx="104.77" cy="676.76" fill="#9e9e9e"></circle><circle r="5" cx="225.07" cy="487.77" fill="#9e9e9e"></circle><circle r="5" cx="203.37" cy="699.56" fill="#9e9e9e"></circle><circle r="5" cx="392.48" cy="490.25" fill="#9e9e9e"></circle><circle r="5" cx="502.84" cy="545.59" fill="#9e9e9e"></circle><circle r="5" cx="487.69" cy="694.07" fill="#9e9e9e"></circle><circle r="5" cx="669.64" cy="377.99" fill="#9e9e9e"></circle><circle r="5" cx="707.46" cy="524.19" fill="#9e9e9e"></circle><circle r="5" cx="656.79" cy="661.64" fill="#9e9e9e"></circle><circle r="5" cx="802.67" cy="346.71" fill="#9e9e9e"></circle><circle r="5" cx="992.08" cy="366.59" fill="#9e9e9e"></circle><circle r="5" cx="993.12" cy="506.48" fill="#9e9e9e"></circle><circle r="5" cx="1138.58" cy="70.27" fill="#9e9e9e"></circle><circle r="5" cx="1100.08" cy="218.74" fill="#9e9e9e"></circle><circle r="5" cx="1107.23" cy="528.16" fill="#9e9e9e"></circle><circle r="5" cx="1113.47" cy="646.67" fill="#9e9e9e"></circle><circle r="5" cx="1283.93" cy="-41.53" fill="#9e9e9e"></circle><circle r="5" cx="1252.6" cy="59.37" fill="#9e9e9e"></circle><circle r="5" cx="1279.27" cy="361.92" fill="#9e9e9e"></circle><circle r="5" cx="1263.75" cy="682.64" fill="#9e9e9e"></circle><circle r="5" cx="1442.54" cy="68.34" fill="#9e9e9e"></circle><circle r="5" cx="1430.27" cy="251.39" fill="#9e9e9e"></circle><circle r="5" cx="1412.51" cy="406.48" fill="#9e9e9e"></circle><circle r="5" cx="1450.93" cy="496" fill="#9e9e9e"></circle><circle r="5" cx="1577.32" cy="54.59" fill="#9e9e9e"></circle><circle r="5" cx="1594.86" cy="388.87" fill="#9e9e9e"></circle><circle r="5" cx="1605.56" cy="489.08" fill="#9e9e9e"></circle><circle r="5" cx="1557.63" cy="671.42" fill="#9e9e9e"></circle></g><defs><mask id="SvgjsMask1020"><rect width="1440" height="560" fill="#ffffff"></rect></mask><radialGradient id="SvgjsRadialGradient1021"><stop stop-color="#ffffff" offset="0.1"></stop><stop stop-color="rgba(61, 61, 61, 1)" offset="0.2"></stop><stop stop-color="rgba(61, 61, 61, 0)" offset="1"></stop></radialGradient></defs></svg>